<?xml version="1.0" encoding="UTF-8" standalone="no"?>
<svg width="48" height="48" viewBox="0 0 48 48" fill="none" xmlns="http://www.w3.org/2000/svg">
  <path d="M24 4C12.9543 4 4 12.9543 4 24C4 35.0457 12.9543 44 24 44C35.0457 44 44 35.0457 44 24C44 12.9543 35.0457 4 24 4Z" fill="#f8f8f8" stroke="#4db6ac" stroke-width="2"/>
  <path d="M15 15C18.866 15 22 18.134 22 22C22 25.866 18.866 29 15 29C11.134 29 8 25.866 8 22C8 18.134 11.134 15 15 15Z" fill="#4db6ac"/>
  <path d="M33 15C36.866 15 40 18.134 40 22C40 25.866 36.866 29 33 29C29.134 29 26 25.866 26 22C26 18.134 29.134 15 33 15Z" fill="#4db6ac"/>
  <path d="M15 19C18.866 19 22 22.134 22 26C22 29.866 18.866 33 15 33C11.134 33 8 29.866 8 26C8 22.134 11.134 19 15 19Z" fill="#4db6ac"/>
  <path d="M33 19C36.866 19 40 22.134 40 26C40 29.866 36.866 33 33 33C29.134 33 26 29.866 26 26C26 22.134 29.134 19 33 19Z" fill="#4db6ac"/>
  <path d="M24 10C27.866 10 31 13.134 31 17C31 20.866 27.866 24 24 24C20.134 24 17 20.866 17 17C17 13.134 20.134 10 24 10Z" fill="#4db6ac"/>
  <path d="M24 24C27.866 24 31 27.134 31 31C31 34.866 27.866 38 24 38C20.134 38 17 34.866 17 31C17 27.134 20.134 24 24 24Z" fill="#4db6ac"/>
  <circle cx="12" cy="12" r="3" fill="#4db6ac"/>
  <circle cx="36" cy="12" r="3" fill="#4db6ac"/>
  <circle cx="12" cy="36" r="3" fill="#4db6ac"/>
  <circle cx="36" cy="36" r="3" fill="#4db6ac"/>
</svg>